<svg width="122" height="121" viewBox="0 0 122 121" fill="none" xmlns="http://www.w3.org/2000/svg">
<path d="M95.0338 22.3162C94.4146 21.7732 94.1135 21.1388 94.1306 20.4131C94.1344 19.7023 94.3879 19.065 94.8912 18.5013C95.3813 17.9524 95.9886 17.6254 96.7133 17.5203C97.438 17.4153 98.1099 17.6343 98.729 18.1773C99.3482 18.7204 99.6492 19.3547 99.6322 20.0804C99.6151 20.8061 99.3616 21.4434 98.8715 21.9923C98.3682 22.556 97.7609 22.8829 97.0495 22.9732C96.3248 23.0782 95.6529 22.8592 95.0338 22.3162Z" fill="black"/>
<path d="M84.733 14.4158C84.1825 14.8539 83.4772 15.184 82.617 15.406C81.7302 15.6372 80.977 15.6027 80.3573 15.3026C79.9678 15.1139 79.7024 14.9193 79.5611 14.7187L80.6563 12.5402C80.8054 13.207 81.234 13.712 81.9422 14.055C82.6858 14.4152 83.4348 14.3706 84.1892 13.9211C84.9346 13.4893 85.5612 12.7686 86.0687 11.759L87.1506 9.6071C87.6492 8.61525 87.877 7.87762 87.8338 7.39419C87.7906 6.91076 87.6717 6.59988 87.4771 6.46155L91.2216 8.27535C90.9914 8.20786 90.6721 8.29549 90.2638 8.53823C89.829 8.79011 89.3578 9.42083 88.8502 10.4304L86.8334 14.442C86.4594 15.1859 86.3296 15.7507 86.4439 16.1365C86.5316 16.5313 86.7259 16.8017 87.0269 16.9475L83.5176 16.8334L84.733 14.4158Z" fill="black"/>
<path d="M73.9514 1.56143C74.9955 1.77904 75.838 2.21683 76.4789 2.8748C77.1155 3.55203 77.5454 4.33744 77.7687 5.23105C77.9684 6.13989 77.9638 7.05659 77.755 7.98114C77.4853 9.17535 77.0205 10.1575 76.3607 10.9275C75.6816 11.6935 74.915 12.2195 74.0609 12.5053C73.2068 12.7912 72.3737 12.8495 71.5617 12.6802C70.4016 12.4384 69.5016 11.8071 68.8616 10.7863C68.198 9.78077 67.9949 8.52836 68.2526 7.02911L75.793 8.60078C76.0018 7.67623 76.0127 6.82135 75.8256 6.03614C75.6342 5.27018 75.292 4.63414 74.799 4.12802C74.2823 3.63712 73.6759 3.31914 72.9798 3.17406C71.1624 2.79525 69.8042 3.11719 68.9051 4.13989C69.314 3.13604 69.977 2.3969 70.8939 1.92247C71.8108 1.44804 72.83 1.32769 73.9514 1.56143ZM71.98 11.7691C72.7341 11.9262 73.4427 11.7916 74.1058 11.3651C74.7647 10.9579 75.2478 10.3426 75.5552 9.51928L70.2769 8.41911C70.0768 9.30514 70.1618 10.0489 70.5321 10.6505C70.8787 11.2672 71.3613 11.6401 71.98 11.7691Z" fill="black"/>
<path d="M59.1924 0.361109C59.7867 0.335287 60.4037 0.406904 61.0432 0.575958C61.6828 0.745011 62.2152 0.977779 62.6403 1.27426L62.7153 3.86934C62.3122 2.96168 61.7877 2.3152 61.1419 1.92989C60.4768 1.5651 59.7679 1.39906 59.0151 1.43177C58.401 1.45845 57.9106 1.64708 57.5439 1.99764C57.1574 2.34907 56.9698 2.72138 56.9811 3.11458C56.9937 3.54709 57.2023 3.90219 57.607 4.17987C58.0117 4.45755 58.6256 4.76551 59.4486 5.10376C60.5127 5.54963 61.3388 5.996 61.9269 6.44287C62.515 6.88975 62.8208 7.51621 62.8441 8.32225C62.8696 9.20694 62.5548 9.97847 61.8994 10.6368C61.2441 11.2952 60.3716 11.6481 59.2821 11.6954C58.5293 11.7281 57.8731 11.6681 57.3133 11.5152C56.7535 11.3624 56.3318 11.1839 56.0482 10.9797L56.4597 8.74728C56.7168 9.40538 57.1274 9.88949 57.6918 10.1996C58.2561 10.5097 58.8453 10.6514 59.4594 10.6248C59.9943 10.6015 60.4355 10.4249 60.7829 10.0948C61.1106 9.76564 61.2688 9.40445 61.2574 9.01125C61.242 8.48044 61.0218 8.06679 60.5967 7.77031C60.1518 7.4747 59.4881 7.15905 58.6057 6.82339C57.5631 6.43563 56.7678 6.02729 56.2199 5.59836C55.6527 5.18994 55.3575 4.58272 55.3342 3.77667C55.3177 3.20654 55.4608 2.66884 55.7636 2.16358C56.0663 1.65831 56.5202 1.23506 57.1252 0.893826C57.711 0.57311 58.4 0.395537 59.1924 0.361109Z" fill="black"/>
<path d="M41.4318 5.87217C41.9771 4.26032 42.942 3.23549 44.3263 2.79766C45.2935 2.49178 46.1849 2.54912 47.0007 2.96969C47.8221 3.40901 48.4314 4.27527 48.8285 5.56849L50.0544 9.56058C50.2903 10.329 50.5949 10.8804 50.968 11.2148C51.3222 11.5551 51.674 11.7523 52.0235 11.8063C52.3729 11.8602 52.539 11.8591 52.5217 11.8029L49.0798 12.8915L47.1375 6.56596C46.867 5.68508 46.4228 5.08533 45.8048 4.76671C45.1679 4.45409 44.5175 4.40275 43.8538 4.61266C43.1901 4.82258 42.6684 5.22405 42.2887 5.81706C41.8959 6.43481 41.8088 7.09978 42.0275 7.81199L43.2878 11.9165C43.5123 12.6475 43.7769 13.1704 44.0816 13.4853C44.3863 13.8001 44.6821 13.9842 44.9689 14.0374C45.2558 14.0906 45.3934 14.0985 45.3819 14.061L42.2529 15.0506L40.0861 7.99418C39.8444 7.207 39.5542 6.70246 39.2156 6.48056C38.8638 6.28339 38.5267 6.23579 38.2043 6.33775L38.0336 6.39173L40.8275 3.90423L41.4318 5.87217Z" fill="black"/>
<path d="M34.6078 16.7037C34.586 17.4874 34.4388 18.2069 34.1663 18.8624C33.9058 19.5333 33.5075 20.0754 32.9715 20.4889C32.3883 20.9388 31.7678 21.1947 31.1102 21.2567C30.4489 21.3463 29.8176 21.2149 29.2164 20.8624C29.1991 21.7167 29.0245 22.4821 28.6927 23.1586C28.3451 23.8472 27.8797 24.4165 27.2964 24.8664C26.4451 25.523 25.5571 25.7751 24.6323 25.6227C23.7037 25.4979 22.8491 24.9327 22.0685 23.927L19.5645 20.7011C18.904 19.8501 18.3372 19.3473 17.8643 19.1926C17.3914 19.0379 17.0563 19.012 16.8588 19.1148L20.2166 16.5248C20.0515 16.7017 19.9925 17.0316 20.0398 17.5146C20.0713 18.0097 20.4233 18.6905 21.0959 19.557L23.1495 22.2027C23.5579 22.7287 23.9531 23.0918 24.3351 23.2918C24.7172 23.4918 25.1045 23.6011 25.4971 23.6199C26.0879 23.6342 26.6355 23.4468 27.14 23.0577C27.6917 22.6321 28.0363 22.0695 28.1737 21.3698C28.3073 20.6978 28.122 20.0369 27.6176 19.3871L25.2577 16.3468C24.5851 15.4804 24.0203 14.9637 23.5631 14.7969C23.0902 14.6422 22.7472 14.6224 22.534 14.7373L25.8918 12.1473C25.7266 12.3242 25.6677 12.6541 25.715 13.1371C25.7465 13.6322 26.0985 14.313 26.771 15.1795L28.8247 17.8252C29.233 18.3512 29.6282 18.7143 30.0103 18.9143C30.3924 19.1143 30.7797 19.2236 31.1723 19.2424C31.763 19.2567 32.3107 19.0693 32.8151 18.6802C33.3826 18.2424 33.7272 17.6798 33.8488 16.9923C33.9825 16.3203 33.7971 15.6594 33.2927 15.0096L30.9328 11.9693C30.2483 11.0874 29.6695 10.5691 29.1966 10.4144C28.7357 10.2752 28.3987 10.2631 28.1855 10.3781L31.5433 7.78804C31.3781 7.9649 31.3192 8.29483 31.3665 8.77782C31.4137 9.26081 31.7736 9.93552 32.4462 10.802L35.1664 14.3064C35.6708 14.9562 36.1234 15.312 36.5243 15.3739C36.9213 15.4634 37.2539 15.4047 37.5219 15.198L35.8327 18.2819L34.6078 16.7037Z" fill="black"/>
<path d="M9.84986 28.4845C10.4357 27.5866 11.1559 26.9502 12.0102 26.5754C12.8811 26.211 13.7787 26.0753 14.7031 26.1681C15.6332 26.2881 16.4963 26.6007 17.2923 27.1058C18.3205 27.7583 19.0776 28.5209 19.5634 29.3935C20.0385 30.2828 20.2551 31.1727 20.2134 32.0633C20.1717 32.9538 19.923 33.7483 19.4673 34.4467C18.8163 35.4443 17.8927 36.0691 16.6965 36.3211C15.506 36.6001 14.2506 36.3678 12.9302 35.6239L17.1616 29.1391C16.3656 28.6339 15.5631 28.3363 14.7542 28.2462C13.9619 28.1666 13.2371 28.271 12.58 28.5594C11.9285 28.8749 11.4075 29.3319 11.0169 29.9305C9.99705 31.4935 9.80562 32.8651 10.4426 34.0453C9.64473 33.3273 9.18914 32.4621 9.07586 31.4497C8.96258 30.4373 9.22057 29.4489 9.84986 28.4845ZM18.7603 33.7511C19.1835 33.1026 19.3148 32.3983 19.1542 31.638C19.0103 30.8883 18.606 30.232 17.9414 29.6692L14.9794 34.2086C15.7422 34.6927 16.4749 34.8637 17.1773 34.7216C17.8855 34.6067 18.4131 34.2832 18.7603 33.7511Z" fill="black"/>
<path d="M11.7141 46.6538C11.4744 47.4488 11.0204 47.9981 10.352 48.3017C9.70262 48.6106 9.01734 48.6628 8.29616 48.4583C7.59397 48.2592 7.04566 47.8571 6.65124 47.2521C6.25681 46.6471 6.17945 45.9471 6.41914 45.1522C6.65884 44.3572 7.11286 43.8079 7.78122 43.5043C8.44958 43.2008 9.13486 43.1486 9.83706 43.3477C10.5582 43.5522 11.1065 43.9543 11.482 44.5539C11.8764 45.1589 11.9538 45.8589 11.7141 46.6538Z" fill="black"/>
<path d="M8.75977 59.3816C9.38595 59.6838 9.9775 60.1725 10.5344 60.8479C11.1106 61.5431 11.3896 62.2351 11.3715 62.9238C11.3601 63.3567 11.2921 63.6807 11.1675 63.8959L8.73078 63.869C9.27707 63.442 9.56059 62.835 9.58132 62.0479C9.60308 61.2214 9.25368 60.5681 8.53311 60.0877C7.83235 59.6076 6.91736 59.3613 5.78813 59.3489L3.38109 59.3224C2.27167 59.3102 1.50558 59.4297 1.08281 59.6809C0.660043 59.9321 0.425736 60.1756 0.379892 60.4113L0.489502 56.2495C0.522902 56.4861 0.734349 56.7345 1.12383 56.9946C1.53261 57.2747 2.30161 57.4209 3.43084 57.4334L7.91803 57.4828C8.75009 57.492 9.31835 57.3604 9.62276 57.0882C9.94648 56.8359 10.1127 56.5425 10.1215 56.208L11.464 59.4114L8.75977 59.3816Z" fill="black"/>
<path d="M1.48914 74.7181C1.25713 73.6844 1.30885 72.735 1.6443 71.8699C1.9991 71.0003 2.53767 70.2688 3.26 69.6755C4.00597 69.0967 4.84327 68.698 5.7719 68.4794C6.97138 68.197 8.05798 68.183 9.03168 68.4375C10.0097 68.7111 10.8049 69.1688 11.4175 69.8107C12.03 70.4525 12.4265 71.1755 12.6069 71.9795C12.8647 73.1282 12.6604 74.2143 11.9939 75.2379C11.351 76.2761 10.2933 77.0089 8.82084 77.4362L7.14524 69.9701C6.21661 70.1887 5.43305 70.5546 4.79457 71.0677C4.17543 71.5763 3.73684 72.1633 3.4788 72.8287C3.24441 73.5087 3.20454 74.1933 3.35921 74.8825C3.76307 76.6821 4.61628 77.761 5.91885 78.1195C4.83547 78.1932 3.88865 77.9223 3.07835 77.3069C2.26807 76.6914 1.73833 75.8285 1.48914 74.7181ZM11.6042 72.004C11.4366 71.2574 11.0218 70.6798 10.3598 70.2713C9.71719 69.8583 8.95734 69.6946 8.08031 69.7801L9.25323 75.0064C10.1432 74.7969 10.7859 74.3936 11.1815 73.7966C11.6008 73.2141 11.7417 72.6166 11.6042 72.004Z" fill="black"/>
<path d="M6.47826 88.5072C6.20979 87.9846 6.02077 87.3988 5.91122 86.7498C5.80167 86.1008 5.79437 85.5201 5.88935 85.0079L8.22339 83.8001C7.56237 84.5612 7.18938 85.3165 7.10443 86.0662C7.04611 86.8241 7.187 87.5341 7.52707 88.1961C7.80449 88.7362 8.17851 89.094 8.64914 89.2694C9.12873 89.4623 9.54533 89.4673 9.89897 89.2843C10.288 89.083 10.5256 88.7395 10.6119 88.2538C10.6981 87.7681 10.7257 87.0812 10.6948 86.193C10.6625 85.0409 10.7288 84.1025 10.8937 83.3776C11.0585 82.6528 11.5034 82.1028 12.2284 81.7277C13.0241 81.3159 13.857 81.2598 14.7271 81.5594C15.5972 81.8589 16.2783 82.4878 16.7705 83.446C17.1106 84.1081 17.3264 84.7242 17.4178 85.2943C17.5092 85.8645 17.5204 86.3218 17.4511 86.6664L15.2471 87.2776C15.7409 86.7575 16.0128 86.1757 16.0629 85.5323C16.1129 84.889 15.9992 84.2973 15.7217 83.7572C15.4801 83.2868 15.1373 82.968 14.6933 82.8008C14.2582 82.651 13.8639 82.6676 13.5103 82.8506C13.0329 83.0977 12.7466 83.4773 12.6517 83.9896C12.5656 84.5193 12.5515 85.2543 12.6093 86.1947C12.6857 87.302 12.6413 88.196 12.4763 88.8768C12.3378 89.5659 11.9061 90.0981 11.1812 90.4732C10.6684 90.7386 10.1194 90.8462 9.53414 90.7962C8.9489 90.7462 8.37611 90.5244 7.81577 90.1307C7.28206 89.7453 6.83623 89.2041 6.47826 88.5072Z" fill="black"/>
<path d="M18.8213 102.045C17.1276 102.263 15.796 101.846 14.8264 100.795C14.149 100.06 13.8339 99.2339 13.8809 98.3161C13.9427 97.385 14.481 96.4568 15.4959 95.5317L18.6288 92.676C19.2318 92.1263 19.6088 91.6103 19.7597 91.1281C19.9239 90.6603 19.9586 90.2575 19.8637 89.9198C19.7689 89.5821 19.6994 89.4333 19.6553 89.4735L22.066 92.088L17.1019 96.6129C16.4106 97.243 16.0471 97.9057 16.0115 98.601C15.9891 99.3107 16.2104 99.9177 16.6752 100.422C17.1401 100.926 17.721 101.218 18.4179 101.299C19.1428 101.38 19.7847 101.167 20.3436 100.657L23.5647 97.7208C24.1383 97.198 24.5058 96.7304 24.6672 96.3182C24.8285 95.906 24.8743 95.5594 24.8046 95.2783C24.7349 94.9972 24.6854 94.87 24.6559 94.8968L26.8475 97.2736L21.3098 102.321C20.6921 102.885 20.3519 103.367 20.2892 103.769C20.2545 104.171 20.3501 104.495 20.5759 104.74L20.6954 104.87L17.2769 103.452L18.8213 102.045Z" fill="black"/>
<path d="M31.5048 103.416C32.2279 103.092 32.9443 102.908 33.654 102.864C34.3728 102.804 35.031 102.923 35.6287 103.223C36.2791 103.55 36.7681 103.995 37.0956 104.558C37.4498 105.113 37.5902 105.738 37.5168 106.433C38.3025 106.074 39.072 105.894 39.8252 105.895C40.5961 105.905 41.3067 106.073 41.9571 106.399C42.9064 106.876 43.5021 107.563 43.7444 108.461C44.0134 109.35 43.8505 110.366 43.2558 111.51L41.348 115.177C40.8447 116.145 40.62 116.875 40.674 117.368C40.7279 117.861 40.8425 118.173 41.0175 118.305L37.2732 116.426C37.5025 116.497 37.8274 116.405 38.2481 116.15C38.6864 115.904 39.1617 115.289 39.6741 114.304L41.2388 111.296C41.5499 110.698 41.7178 110.183 41.7426 109.752C41.7674 109.321 41.7074 108.925 41.5627 108.564C41.3323 108.027 40.9358 107.617 40.3732 107.335C39.758 107.026 39.1032 106.963 38.409 107.147C37.7415 107.323 37.2156 107.78 36.8313 108.518L35.0333 111.975C34.5208 112.96 34.2828 113.694 34.3192 114.179C34.3731 114.671 34.4965 114.988 34.6891 115.129L30.9448 113.25C31.174 113.321 31.499 113.229 31.9197 112.974C32.3579 112.728 32.8333 112.113 33.3457 111.128L34.9104 108.12C35.2215 107.522 35.3894 107.007 35.4142 106.576C35.439 106.145 35.379 105.749 35.2343 105.388C35.0038 104.851 34.6073 104.441 34.0448 104.159C33.412 103.841 32.7572 103.779 32.0806 103.971C31.413 104.147 30.8871 104.604 30.5028 105.342L28.7048 108.799C28.1833 109.802 27.9495 110.549 28.0034 111.042C28.0665 111.518 28.1944 111.826 28.387 111.967L24.6427 110.088C24.872 110.158 25.1969 110.066 25.6176 109.812C26.0383 109.557 26.5048 108.937 27.0172 107.952L29.0898 103.968C29.4741 103.229 29.6118 102.666 29.5029 102.279C29.4208 101.883 29.2303 101.609 28.9315 101.459L32.4381 101.622L31.5048 103.416Z" fill="black"/>
<path d="M52.4453 120.486C51.3855 120.354 50.5087 119.987 49.815 119.384C49.124 118.761 48.6303 118.014 48.3339 117.143C48.0599 116.255 47.989 115.342 48.1213 114.404C48.2922 113.194 48.6751 112.178 49.2701 111.358C49.8848 110.541 50.6064 109.955 51.4352 109.601C52.264 109.247 53.0905 109.122 53.9148 109.224C55.0923 109.371 56.0424 109.926 56.765 110.89C57.51 111.837 57.8157 113.068 57.682 114.581L50.0281 113.628C49.8959 114.566 49.9554 115.418 50.2067 116.184C50.4607 116.931 50.8546 117.536 51.3882 118C51.9442 118.447 52.5755 118.714 53.282 118.802C55.1268 119.032 56.4557 118.601 57.2686 117.51C56.9432 118.542 56.3425 119.332 55.4666 119.879C54.5906 120.425 53.5835 120.628 52.4453 120.486ZM53.5723 110.165C52.8069 110.07 52.1109 110.261 51.4842 110.74C50.8603 111.199 50.4288 111.85 50.1898 112.695L55.5475 113.362C55.6743 112.463 55.5282 111.73 55.1092 111.161C54.7126 110.575 54.2003 110.243 53.5723 110.165Z" fill="black"/>
<path d="M68.2351 110.827C69.0584 110.693 69.7461 110.859 70.2982 111.327C70.8474 111.774 71.1774 112.367 71.2883 113.105C71.3962 113.824 71.2558 114.493 70.867 115.113C70.4783 115.733 69.8722 116.111 69.049 116.244C68.2257 116.378 67.538 116.212 66.9858 115.745C66.4337 115.278 66.1037 114.685 65.9958 113.966C65.8849 113.228 66.0253 112.559 66.417 111.958C66.8058 111.338 67.4118 110.961 68.2351 110.827Z" fill="black"/>
<path d="M81.052 107.889C81.0692 107.193 81.2708 106.447 81.6568 105.65C82.0529 104.827 82.5685 104.272 83.2036 103.986C83.6028 103.806 83.9261 103.724 84.1735 103.742L85.1534 105.943C84.5391 105.64 83.869 105.652 83.1432 105.979C82.381 106.323 81.9296 106.924 81.7889 107.782C81.6402 108.623 81.7929 109.553 82.2469 110.573L83.2149 112.748C83.661 113.75 84.0857 114.386 84.4889 114.656C84.8921 114.925 85.2105 115.029 85.4442 114.966L81.6063 116.697C81.8081 116.563 81.9473 116.263 82.0239 115.799C82.1106 115.309 81.927 114.554 81.4729 113.533L79.6684 109.48C79.3338 108.728 78.9798 108.275 78.6062 108.121C78.2429 107.941 77.9069 107.921 77.5985 108.06L79.9645 105.446L81.052 107.889Z" fill="black"/>
<path d="M98.0255 107.683C97.179 108.345 96.2924 108.716 95.3658 108.795C94.4271 108.858 93.5385 108.696 92.7001 108.307C91.8652 107.891 91.1567 107.314 90.5747 106.576C89.823 105.622 89.3624 104.652 89.193 103.665C89.0392 102.666 89.1286 101.75 89.4611 100.918C89.7936 100.085 90.289 99.4114 90.9474 98.896C91.8879 98.1596 92.962 97.8659 94.1695 98.015C95.3806 98.1364 96.4843 98.7648 97.4807 99.9002L91.3672 104.687C91.9492 105.425 92.6056 105.968 93.3364 106.317C94.055 106.649 94.7707 106.786 95.4835 106.725C96.1998 106.637 96.8402 106.372 97.4045 105.93C98.878 104.776 99.5097 103.535 99.2994 102.208C99.8131 103.149 99.9565 104.118 99.7296 105.117C99.5027 106.116 98.9347 106.971 98.0255 107.683ZM91.383 99.7863C90.7716 100.265 90.4162 100.891 90.3168 101.666C90.2053 102.425 90.3692 103.179 90.8087 103.93L95.0881 100.579C94.5304 99.8718 93.8979 99.4714 93.1908 99.3783C92.4872 99.2575 91.8846 99.3935 91.383 99.7863Z" fill="black"/>
<path d="M108.536 97.14C108.17 97.6109 107.714 98.0382 107.168 98.4218C106.621 98.8055 106.095 99.0672 105.589 99.2069L103.527 97.6404C104.493 97.8999 105.335 97.9031 106.053 97.65C106.768 97.3694 107.357 96.9308 107.82 96.3343C108.198 95.8477 108.369 95.3544 108.335 94.8544C108.313 94.3387 108.146 93.9622 107.834 93.7248C107.49 93.4638 107.079 93.4012 106.601 93.5371C106.123 93.673 105.485 93.95 104.689 94.3681C103.652 94.9034 102.769 95.2562 102.041 95.4266C101.312 95.597 100.628 95.4389 99.9871 94.9523C99.2839 94.4183 98.8895 93.6945 98.8039 92.781C98.7183 91.8676 99.0106 90.9792 99.681 90.1158C100.144 89.5193 100.617 89.0547 101.099 88.722C101.581 88.3893 101.993 88.1783 102.335 88.0891L103.801 89.801C103.123 89.5858 102.481 89.5971 101.874 89.8349C101.267 90.0727 100.775 90.4349 100.397 90.9215C100.068 91.3453 99.9185 91.7934 99.9491 92.2659C99.992 92.7226 100.17 93.0697 100.482 93.307C100.904 93.6274 101.368 93.7178 101.874 93.578C102.392 93.4226 103.068 93.1122 103.901 92.6471C104.879 92.0919 105.712 91.7389 106.4 91.588C107.085 91.4096 107.748 91.5637 108.389 92.0502C108.842 92.3944 109.166 92.8404 109.362 93.3883C109.558 93.9361 109.592 94.5483 109.464 95.2248C109.332 95.8737 109.023 96.5121 108.536 97.14Z" fill="black"/>
<path d="M115.785 80.1004C116.682 81.5263 116.851 82.906 116.292 84.2393C115.902 85.1708 115.279 85.817 114.423 86.178C113.549 86.5317 112.481 86.4558 111.22 85.9504L107.326 84.3903C106.577 84.0899 105.951 83.9779 105.45 84.0542C104.956 84.1123 104.574 84.2581 104.306 84.4917C104.037 84.7254 103.93 84.8532 103.985 84.8751L105.374 81.5601L111.543 84.0322C112.403 84.3765 113.156 84.4119 113.805 84.1384C114.461 83.8466 114.923 83.3811 115.19 82.7419C115.458 82.1026 115.485 81.4522 115.271 80.7906C115.047 80.1034 114.587 79.6206 113.893 79.3423L109.889 77.7381C109.176 77.4525 108.599 77.3277 108.157 77.3639C107.715 77.4 107.38 77.5112 107.152 77.6973C106.925 77.8835 106.829 77.9839 106.866 77.9986L108.129 74.9849L115.011 77.7427C115.779 78.0503 116.359 78.144 116.751 78.0238C117.132 77.878 117.388 77.6498 117.518 77.3393L117.587 77.1749L117.704 80.8695L115.785 80.1004Z" fill="black"/>
<path d="M111.808 68.1007C111.214 67.5936 110.751 67.0308 110.419 66.4121C110.067 65.7929 109.905 65.1488 109.932 64.48C109.961 63.7521 110.165 63.1172 110.544 62.5752C110.904 62.0131 111.416 61.6123 112.079 61.3728C111.428 60.8249 110.947 60.2123 110.637 59.5351C110.328 58.8382 110.189 58.1258 110.218 57.3979C110.261 56.3356 110.642 55.4983 111.36 54.886C112.06 54.2536 113.053 53.9534 114.34 53.9854L118.469 54.088C119.558 54.1151 120.316 53.9961 120.743 53.731C121.17 53.4659 121.407 53.2257 121.456 53.0103L121.286 57.2005C121.256 56.9634 121.039 56.7119 120.633 56.4458C120.228 56.16 119.472 56.0034 118.363 55.9758L114.977 55.8916C114.303 55.8749 113.765 55.9501 113.362 56.1173C112.959 56.2845 112.622 56.5125 112.353 56.8012C111.959 57.2443 111.749 57.7806 111.723 58.4101C111.695 59.0986 111.908 59.7144 112.362 60.2574C112.797 60.7802 113.43 61.0519 114.262 61.0726L118.153 61.1693C119.262 61.1969 120.029 61.088 120.456 60.8426C120.883 60.5775 121.121 60.3274 121.17 60.0923L121.001 64.2825C120.971 64.0455 120.753 63.7939 120.347 63.5278C119.942 63.2421 119.186 63.0854 118.077 63.0579L114.691 62.9737C114.017 62.9569 113.479 63.0322 113.076 63.1994C112.673 63.3666 112.337 63.5945 112.067 63.8832C111.673 64.3263 111.463 64.8626 111.437 65.4922C111.409 66.2004 111.622 66.8161 112.076 67.3394C112.511 67.8622 113.144 68.134 113.976 68.1546L117.867 68.2514C118.996 68.2794 119.774 68.1609 120.201 67.8958C120.608 67.6303 120.836 67.3799 120.885 67.1449L120.716 71.3351C120.686 71.098 120.468 70.8465 120.062 70.5804C119.657 70.3143 118.9 70.1675 117.791 70.1399L113.306 70.0284C112.474 70.0077 111.904 70.1314 111.596 70.3994C111.269 70.6473 111.099 70.9384 111.085 71.2729L109.788 68.0505L111.808 68.1007Z" fill="black"/>
<path d="M118.733 41.7835C119.05 42.7937 119.076 43.743 118.813 44.6313C118.53 45.5257 118.053 46.2976 117.381 46.9468C116.684 47.5835 115.881 48.0483 114.973 48.3413C113.799 48.7198 112.716 48.8218 111.723 48.6476C110.725 48.4546 109.894 48.0635 109.23 47.4742C108.565 46.885 108.11 46.1976 107.864 45.4118C107.512 44.2894 107.627 43.1916 108.208 42.1186C108.764 41.033 109.759 40.2177 111.193 39.6729L113.48 46.9689C114.388 46.6759 115.14 46.2481 115.735 45.6855C116.311 45.129 116.7 44.5091 116.903 43.8258C117.081 43.1298 117.064 42.4452 116.853 41.7717C116.302 40.0131 115.362 39.0083 114.033 38.7572C115.108 38.596 116.075 38.7888 116.934 39.3356C117.793 39.8825 118.393 40.6985 118.733 41.7835ZM108.863 45.3061C109.091 46.0357 109.553 46.577 110.247 46.9299C110.922 47.2889 111.694 47.3902 112.562 47.2339L110.962 42.1266C110.091 42.4074 109.483 42.861 109.137 43.4874C108.766 44.1012 108.675 44.7075 108.863 45.3061Z" fill="black"/>
</svg>
