<svg width="155" height="26" viewBox="0 0 155 26" fill="none" xmlns="http://www.w3.org/2000/svg">
<path d="M2.824 24.336C2.68533 24.7093 2.46667 24.9867 2.168 25.168C1.88 25.3493 1.58133 25.44 1.272 25.44H0.072L9.688 1.488C9.816 1.14667 10.008 0.885333 10.264 0.703999C10.5307 0.522666 10.8347 0.431999 11.176 0.431999H12.392L2.824 24.336ZM29.6128 7.792L23.0048 24H20.4448L13.8368 7.792H16.1568C16.3914 7.792 16.5834 7.85067 16.7328 7.968C16.8821 8.08533 16.9834 8.224 17.0368 8.384L21.1488 18.816C21.2768 19.2107 21.3888 19.5947 21.4848 19.968C21.5808 20.3413 21.6714 20.7147 21.7568 21.088C21.8421 20.7147 21.9328 20.3413 22.0288 19.968C22.1248 19.5947 22.2421 19.2107 22.3808 18.816L26.5408 8.384C26.6048 8.21333 26.7114 8.07467 26.8608 7.968C27.0101 7.85067 27.1861 7.792 27.3888 7.792H29.6128ZM46.0968 24H43.7768C43.5421 24 43.3501 23.9413 43.2008 23.824C43.0514 23.7067 42.9501 23.568 42.8968 23.408L38.7847 12.992C38.6568 12.5973 38.5448 12.2133 38.4488 11.84C38.3528 11.456 38.2621 11.0773 38.1768 10.704C38.0914 11.0773 38.0008 11.456 37.9048 11.84C37.8088 12.2133 37.6914 12.5973 37.5528 12.992L33.3928 23.408C33.3288 23.5787 33.2221 23.7227 33.0728 23.84C32.9234 23.9467 32.7474 24 32.5448 24H30.3208L36.9288 7.792H39.4888L46.0968 24ZM51.5575 7.792V24H48.6935V7.792H51.5575ZM58.9325 20.096C59.4552 20.8 60.0258 21.296 60.6445 21.584C61.2738 21.872 61.9618 22.016 62.7085 22.016C64.2338 22.016 65.4018 21.4773 66.2125 20.4C67.0232 19.3227 67.4285 17.7173 67.4285 15.584C67.4285 13.6 67.0658 12.144 66.3405 11.216C65.6258 10.2773 64.6018 9.808 63.2685 9.808C62.3405 9.808 61.5298 10.0213 60.8365 10.448C60.1538 10.8747 59.5192 11.4773 58.9325 12.256V20.096ZM58.9325 10.128C59.6152 9.33867 60.3832 8.70933 61.2365 8.24C62.1005 7.77067 63.0925 7.536 64.2125 7.536C65.1618 7.536 66.0152 7.71733 66.7725 8.08C67.5405 8.44267 68.1912 8.97067 68.7245 9.664C69.2578 10.3467 69.6632 11.1787 69.9405 12.16C70.2285 13.1413 70.3725 14.2453 70.3725 15.472C70.3725 16.784 70.2125 17.9787 69.8925 19.056C69.5725 20.1333 69.1085 21.056 68.5005 21.824C67.9032 22.5813 67.1725 23.1733 66.3085 23.6C65.4445 24.016 64.4738 24.224 63.3965 24.224C62.3298 24.224 61.4285 24.0267 60.6925 23.632C59.9672 23.2267 59.3325 22.656 58.7885 21.92L58.6445 23.392C58.5592 23.7973 58.3138 24 57.9085 24H56.0685V0.431999H58.9325V10.128ZM75.2615 24.336C75.1228 24.7093 74.9042 24.9867 74.6055 25.168C74.3175 25.3493 74.0188 25.44 73.7095 25.44H72.5095L82.1255 1.488C82.2535 1.14667 82.4455 0.885333 82.7015 0.703999C82.9682 0.522666 83.2722 0.431999 83.6135 0.431999H84.8295L75.2615 24.336ZM89.944 10.144C90.296 9.74933 90.6693 9.392 91.064 9.072C91.4587 8.752 91.8747 8.48 92.312 8.256C92.76 8.02133 93.2293 7.84533 93.72 7.728C94.2213 7.6 94.76 7.536 95.336 7.536C96.2213 7.536 97 7.68533 97.672 7.984C98.3547 8.272 98.92 8.688 99.368 9.232C99.8267 9.76533 100.173 10.4107 100.408 11.168C100.643 11.9253 100.76 12.7627 100.76 13.68V24H97.896V13.68C97.896 12.4533 97.6133 11.504 97.048 10.832C96.4933 10.1493 95.6453 9.808 94.504 9.808C93.6613 9.808 92.872 10.0107 92.136 10.416C91.4107 10.8213 90.7387 11.3707 90.12 12.064V24H87.256V7.792H88.968C89.3733 7.792 89.624 7.98933 89.72 8.384L89.944 10.144ZM111.932 7.536C113.116 7.536 114.182 7.73333 115.132 8.128C116.081 8.52267 116.892 9.08267 117.564 9.808C118.236 10.5333 118.748 11.4133 119.1 12.448C119.462 13.472 119.644 14.6187 119.644 15.888C119.644 17.168 119.462 18.32 119.1 19.344C118.748 20.368 118.236 21.2427 117.564 21.968C116.892 22.6933 116.081 23.2533 115.132 23.648C114.182 24.032 113.116 24.224 111.932 24.224C110.737 24.224 109.66 24.032 108.7 23.648C107.75 23.2533 106.94 22.6933 106.268 21.968C105.596 21.2427 105.078 20.368 104.716 19.344C104.364 18.32 104.188 17.168 104.188 15.888C104.188 14.6187 104.364 13.472 104.716 12.448C105.078 11.4133 105.596 10.5333 106.268 9.808C106.94 9.08267 107.75 8.52267 108.7 8.128C109.66 7.73333 110.737 7.536 111.932 7.536ZM111.932 22C113.532 22 114.726 21.4667 115.516 20.4C116.305 19.3227 116.7 17.824 116.7 15.904C116.7 13.9733 116.305 12.4693 115.516 11.392C114.726 10.3147 113.532 9.776 111.932 9.776C111.121 9.776 110.412 9.91467 109.804 10.192C109.206 10.4693 108.705 10.8693 108.3 11.392C107.905 11.9147 107.606 12.56 107.404 13.328C107.212 14.0853 107.116 14.944 107.116 15.904C107.116 17.824 107.51 19.3227 108.3 20.4C109.1 21.4667 110.31 22 111.932 22ZM136.584 7.792V24H134.888C134.483 24 134.227 23.8027 134.12 23.408L133.896 21.664C133.192 22.4427 132.403 23.072 131.528 23.552C130.653 24.0213 129.651 24.256 128.52 24.256C127.635 24.256 126.851 24.112 126.168 23.824C125.496 23.5253 124.931 23.1093 124.472 22.576C124.013 22.0427 123.667 21.3973 123.432 20.64C123.208 19.8827 123.096 19.0453 123.096 18.128V7.792H125.944V18.128C125.944 19.3547 126.221 20.304 126.776 20.976C127.341 21.648 128.2 21.984 129.352 21.984C130.195 21.984 130.979 21.7867 131.704 21.392C132.44 20.9867 133.117 20.432 133.736 19.728V7.792H136.584ZM143.788 10.144C144.14 9.74933 144.513 9.392 144.908 9.072C145.302 8.752 145.718 8.48 146.156 8.256C146.604 8.02133 147.073 7.84533 147.564 7.728C148.065 7.6 148.604 7.536 149.18 7.536C150.065 7.536 150.844 7.68533 151.516 7.984C152.198 8.272 152.764 8.688 153.212 9.232C153.67 9.76533 154.017 10.4107 154.252 11.168C154.486 11.9253 154.604 12.7627 154.604 13.68V24H151.74V13.68C151.74 12.4533 151.457 11.504 150.892 10.832C150.337 10.1493 149.489 9.808 148.348 9.808C147.505 9.808 146.716 10.0107 145.98 10.416C145.254 10.8213 144.582 11.3707 143.964 12.064V24H141.1V7.792H142.812C143.217 7.792 143.468 7.98933 143.564 8.384L143.788 10.144Z" fill="#E1E1E1" fill-opacity="0.8"/>
</svg>
