<svg width="57" height="25" viewBox="0 0 57 25" fill="none" xmlns="http://www.w3.org/2000/svg">
<path d="M16.144 8.292L9.536 24.5H6.976L0.368 8.292H2.688C2.92267 8.292 3.11467 8.35067 3.264 8.468C3.41333 8.58533 3.51467 8.724 3.568 8.884L7.68 19.316C7.808 19.7107 7.92 20.0947 8.016 20.468C8.112 20.8413 8.20267 21.2147 8.288 21.588C8.37333 21.2147 8.464 20.8413 8.56 20.468C8.656 20.0947 8.77333 19.7107 8.912 19.316L13.072 8.884C13.136 8.71333 13.2427 8.57467 13.392 8.468C13.5413 8.35067 13.7173 8.292 13.92 8.292H16.144ZM32.628 24.5H30.308C30.0733 24.5 29.8813 24.4413 29.732 24.324C29.5827 24.2067 29.4813 24.068 29.428 23.908L25.316 13.492C25.188 13.0973 25.076 12.7133 24.98 12.34C24.884 11.956 24.7933 11.5773 24.708 11.204C24.6227 11.5773 24.532 11.956 24.436 12.34C24.34 12.7133 24.2227 13.0973 24.084 13.492L19.924 23.908C19.86 24.0787 19.7533 24.2227 19.604 24.34C19.4547 24.4467 19.2787 24.5 19.076 24.5H16.852L23.46 8.292H26.02L32.628 24.5ZM38.0888 8.292V24.5H35.2248V8.292H38.0888ZM45.4638 20.596C45.9864 21.3 46.5571 21.796 47.1758 22.084C47.8051 22.372 48.4931 22.516 49.2398 22.516C50.7651 22.516 51.9331 21.9773 52.7438 20.9C53.5544 19.8227 53.9598 18.2173 53.9598 16.084C53.9598 14.1 53.5971 12.644 52.8718 11.716C52.1571 10.7773 51.1331 10.308 49.7998 10.308C48.8718 10.308 48.0611 10.5213 47.3678 10.948C46.6851 11.3747 46.0504 11.9773 45.4638 12.756V20.596ZM45.4638 10.628C46.1464 9.83867 46.9144 9.20933 47.7678 8.74C48.6318 8.27067 49.6238 8.036 50.7438 8.036C51.6931 8.036 52.5464 8.21733 53.3038 8.58C54.0718 8.94267 54.7224 9.47067 55.2558 10.164C55.7891 10.8467 56.1944 11.6787 56.4718 12.66C56.7598 13.6413 56.9038 14.7453 56.9038 15.972C56.9038 17.284 56.7438 18.4787 56.4237 19.556C56.1038 20.6333 55.6398 21.556 55.0318 22.324C54.4344 23.0813 53.7038 23.6733 52.8398 24.1C51.9758 24.516 51.0051 24.724 49.9278 24.724C48.8611 24.724 47.9598 24.5267 47.2238 24.132C46.4984 23.7267 45.8638 23.156 45.3198 22.42L45.1758 23.892C45.0904 24.2973 44.8451 24.5 44.4398 24.5H42.5998V0.931999H45.4638V10.628Z" fill="black"/>
</svg>
