<svg width="125" height="43" viewBox="0 0 125 43" fill="none" xmlns="http://www.w3.org/2000/svg">
<g filter="url(#filter0_biiiii_1287_645)">
<path d="M13.3974 0.57057C13.3974 0.57057 8.82001 7.13943 0.935768 9.53145L0.480305 11.0012L4.44825 11.0213L4.33882 32.589C4.31706 36.877 6.7929 40.8576 13.3208 40.8907L20.0056 35.2285C16.0335 36.0404 13.2214 35.2581 13.248 30.0102L13.3441 11.0664L20.1281 11.1009L20.5835 9.63115L13.3516 9.59445L13.3974 0.57057ZM53.6275 30.2151L53.7311 9.79934C51.0272 12.9217 42.8415 11.6641 42.8415 11.6641C42.8415 11.6641 44.7543 13.0818 44.7335 17.1778L44.6809 27.5456L39.2059 34.43C35.814 34.4127 32.7534 32.1572 32.779 27.1013L32.8674 9.69347C30.2275 12.8161 21.9778 11.5582 21.9778 11.5582C21.9778 11.5582 23.9546 12.9763 23.9338 17.0722L23.8672 30.1921C23.839 35.76 28.9326 40.9699 35.7165 41.0043L44.6696 29.7856L44.6543 32.7936C44.6325 37.0815 46.2764 41.0579 52.8683 41.0914L57.9531 35.4211C53.981 36.2329 53.6009 35.463 53.6275 30.2151ZM90.7547 35.7795L90.8311 20.7397C90.8593 15.1718 85.7017 9.96156 78.9178 9.92713L69.9647 21.1459L70.0219 9.882C67.318 13.0043 57.8523 11.7403 57.8523 11.7403C60.2771 13.1606 61.0373 14.7005 61.0243 17.2604L60.9311 35.6282C60.9181 38.1882 60.1424 39.7203 57.7032 41.1159L73.063 41.1938C70.6382 39.7735 69.878 38.2336 69.891 35.6737L69.9534 23.3858L75.4284 16.5015C78.8203 16.5187 81.8809 18.7743 81.8553 23.8302L81.7949 35.7341C81.7819 38.294 80.9421 39.8258 78.567 41.2218L93.9268 41.2997C91.502 39.8794 90.7418 38.3395 90.7547 35.7795ZM98.8075 19.6922L122.231 19.811C120.985 13.1486 117.42 9.48248 110.7 9.44839C101.292 9.40065 93.7028 16.6582 93.657 25.6821C93.6116 34.642 101.126 41.9762 110.534 42.024C118.534 42.0646 124.076 34.5406 122.14 25.2506C116.001 36.7396 99.5713 33.1362 98.8075 19.6922ZM104.22 12.4875C107.552 11.7364 109.584 14.8828 111.038 18.3462L98.7506 18.2839C98.9569 15.4689 101.786 12.9872 104.22 12.4875Z" fill="#161616" fill-opacity="0.05"/>
<path d="M13.3974 0.57057C13.3974 0.57057 8.82001 7.13943 0.935768 9.53145L0.480305 11.0012L4.44825 11.0213L4.33882 32.589C4.31706 36.877 6.7929 40.8576 13.3208 40.8907L20.0056 35.2285C16.0335 36.0404 13.2214 35.2581 13.248 30.0102L13.3441 11.0664L20.1281 11.1009L20.5835 9.63115L13.3516 9.59445L13.3974 0.57057ZM53.6275 30.2151L53.7311 9.79934C51.0272 12.9217 42.8415 11.6641 42.8415 11.6641C42.8415 11.6641 44.7543 13.0818 44.7335 17.1778L44.6809 27.5456L39.2059 34.43C35.814 34.4127 32.7534 32.1572 32.779 27.1013L32.8674 9.69347C30.2275 12.8161 21.9778 11.5582 21.9778 11.5582C21.9778 11.5582 23.9546 12.9763 23.9338 17.0722L23.8672 30.1921C23.839 35.76 28.9326 40.9699 35.7165 41.0043L44.6696 29.7856L44.6543 32.7936C44.6325 37.0815 46.2764 41.0579 52.8683 41.0914L57.9531 35.4211C53.981 36.2329 53.6009 35.463 53.6275 30.2151ZM90.7547 35.7795L90.8311 20.7397C90.8593 15.1718 85.7017 9.96156 78.9178 9.92713L69.9647 21.1459L70.0219 9.882C67.318 13.0043 57.8523 11.7403 57.8523 11.7403C60.2771 13.1606 61.0373 14.7005 61.0243 17.2604L60.9311 35.6282C60.9181 38.1882 60.1424 39.7203 57.7032 41.1159L73.063 41.1938C70.6382 39.7735 69.878 38.2336 69.891 35.6737L69.9534 23.3858L75.4284 16.5015C78.8203 16.5187 81.8809 18.7743 81.8553 23.8302L81.7949 35.7341C81.7819 38.294 80.9421 39.8258 78.567 41.2218L93.9268 41.2997C91.502 39.8794 90.7418 38.3395 90.7547 35.7795ZM98.8075 19.6922L122.231 19.811C120.985 13.1486 117.42 9.48248 110.7 9.44839C101.292 9.40065 93.7028 16.6582 93.657 25.6821C93.6116 34.642 101.126 41.9762 110.534 42.024C118.534 42.0646 124.076 34.5406 122.14 25.2506C116.001 36.7396 99.5713 33.1362 98.8075 19.6922ZM104.22 12.4875C107.552 11.7364 109.584 14.8828 111.038 18.3462L98.7506 18.2839C98.9569 15.4689 101.786 12.9872 104.22 12.4875Z" fill="black" fill-opacity="0.8"/>
</g>
<defs>
<filter id="filter0_biiiii_1287_645" x="-39.6743" y="-39.4941" width="203.92" height="121.586" filterUnits="userSpaceOnUse" color-interpolation-filters="sRGB">
<feFlood flood-opacity="0" result="BackgroundImageFix"/>
<feGaussianBlur in="BackgroundImage" stdDeviation="20"/>
<feComposite in2="SourceAlpha" operator="in" result="effect1_backgroundBlur_1287_645"/>
<feBlend mode="normal" in="SourceGraphic" in2="effect1_backgroundBlur_1287_645" result="shape"/>
<feColorMatrix in="SourceAlpha" type="matrix" values="0 0 0 0 0 0 0 0 0 0 0 0 0 0 0 0 0 0 127 0" result="hardAlpha"/>
<feOffset dy="4"/>
<feGaussianBlur stdDeviation="6"/>
<feComposite in2="hardAlpha" operator="arithmetic" k2="-1" k3="1"/>
<feColorMatrix type="matrix" values="0 0 0 0 1 0 0 0 0 1 0 0 0 0 1 0 0 0 0.4 0"/>
<feBlend mode="normal" in2="shape" result="effect2_innerShadow_1287_645"/>
<feColorMatrix in="SourceAlpha" type="matrix" values="0 0 0 0 0 0 0 0 0 0 0 0 0 0 0 0 0 0 127 0" result="hardAlpha"/>
<feOffset dy="-40"/>
<feGaussianBlur stdDeviation="20"/>
<feComposite in2="hardAlpha" operator="arithmetic" k2="-1" k3="1"/>
<feColorMatrix type="matrix" values="0 0 0 0 0 0 0 0 0 0 0 0 0 0 0 0 0 0 0.2 0"/>
<feBlend mode="normal" in2="effect2_innerShadow_1287_645" result="effect3_innerShadow_1287_645"/>
<feColorMatrix in="SourceAlpha" type="matrix" values="0 0 0 0 0 0 0 0 0 0 0 0 0 0 0 0 0 0 127 0" result="hardAlpha"/>
<feOffset dy="-4"/>
<feGaussianBlur stdDeviation="2"/>
<feComposite in2="hardAlpha" operator="arithmetic" k2="-1" k3="1"/>
<feColorMatrix type="matrix" values="0 0 0 0 1 0 0 0 0 1 0 0 0 0 1 0 0 0 0.95 0"/>
<feBlend mode="normal" in2="effect3_innerShadow_1287_645" result="effect4_innerShadow_1287_645"/>
<feColorMatrix in="SourceAlpha" type="matrix" values="0 0 0 0 0 0 0 0 0 0 0 0 0 0 0 0 0 0 127 0" result="hardAlpha"/>
<feOffset dy="20"/>
<feGaussianBlur stdDeviation="24.5"/>
<feComposite in2="hardAlpha" operator="arithmetic" k2="-1" k3="1"/>
<feColorMatrix type="matrix" values="0 0 0 0 1 0 0 0 0 1 0 0 0 0 1 0 0 0 0.25 0"/>
<feBlend mode="normal" in2="effect4_innerShadow_1287_645" result="effect5_innerShadow_1287_645"/>
<feColorMatrix in="SourceAlpha" type="matrix" values="0 0 0 0 0 0 0 0 0 0 0 0 0 0 0 0 0 0 127 0" result="hardAlpha"/>
<feOffset dy="1"/>
<feGaussianBlur stdDeviation="1"/>
<feComposite in2="hardAlpha" operator="arithmetic" k2="-1" k3="1"/>
<feColorMatrix type="matrix" values="0 0 0 0 1 0 0 0 0 1 0 0 0 0 1 0 0 0 0.8 0"/>
<feBlend mode="normal" in2="effect5_innerShadow_1287_645" result="effect6_innerShadow_1287_645"/>
</filter>
</defs>
</svg>
