<?xml version="1.0" encoding="utf-8"?>
<svg viewBox="190.763 221.378 128.619 57.243" xmlns="http://www.w3.org/2000/svg">
  <path d="M17.984 80.624L28.864 50.928H35.072L21.312 86H14.528L0.768 50.928H7.04L17.984 80.624ZM55.395 51.696L68.387 86H62.371L55.075 65.776C54.7337 64.8373 54.371 63.792 53.987 62.64C53.603 61.488 53.2617 60.3787 52.963 59.312C52.6643 58.2453 52.451 57.3707 52.323 56.688H52.067C51.939 57.3707 51.7043 58.2667 51.363 59.376C51.0217 60.4427 50.659 61.552 50.275 62.704C49.891 63.8133 49.5283 64.8373 49.187 65.776L41.891 86H35.875L48.931 51.696H55.395ZM86.551 51.696V55.024L81.431 56.176V81.584L86.551 82.672V86H70.679V82.672L75.799 81.584V56.176L70.679 55.024V51.696H86.551ZM99.627 57.456C100.822 55.3653 102.571 53.6587 104.875 52.336C107.179 51.0133 109.803 50.352 112.747 50.352C115.904 50.352 118.742 51.0987 121.259 52.592C123.776 54.0853 125.76 56.1973 127.211 58.928C128.662 61.616 129.387 64.752 129.387 68.336C129.387 71.8773 128.662 75.0347 127.211 77.808C125.76 80.5813 123.755 82.736 121.195 84.272C118.678 85.808 115.862 86.576 112.747 86.576C109.718 86.576 107.051 85.9147 104.747 84.592C102.486 83.2693 100.779 81.584 99.627 79.536V86H93.803V38.64H99.627V57.456ZM123.435 68.336C123.435 65.6907 122.902 63.3867 121.835 61.424C120.768 59.4613 119.318 57.968 117.483 56.944C115.691 55.92 113.707 55.408 111.531 55.408C109.398 55.408 107.414 55.9413 105.579 57.008C103.787 58.032 102.336 59.5467 101.227 61.552C100.16 63.5147 99.627 65.7973 99.627 68.4C99.627 71.0453 100.16 73.3707 101.227 75.376C102.336 77.3387 103.787 78.8533 105.579 79.92C107.414 80.944 109.398 81.456 111.531 81.456C113.707 81.456 115.691 80.944 117.483 79.92C119.318 78.8533 120.768 77.3387 121.835 75.376C122.902 73.3707 123.435 71.024 123.435 68.336Z" fill="#464646" transform="matrix(1, 0, 0, 1, 189.99506, 192.045491)"/>
  <path d="M41.2193 33.8853C41.7194 33.3852 42.0003 32.7069 42.0003 31.9997C42.0003 31.2924 41.7194 30.6142 41.2193 30.1141C40.7192 29.614 40.0409 29.333 39.3337 29.333C38.6264 29.333 37.9481 29.614 37.448 30.1141C36.9479 30.6142 36.667 31.2924 36.667 31.9997C36.667 32.7069 36.9479 33.3852 37.448 33.8853C37.9481 34.3854 38.6264 34.6663 39.3337 34.6663C40.0409 34.6663 40.7192 34.3854 41.2193 33.8853Z" fill="#464646" transform="matrix(1, 0, 0, 1, 189.99506, 192.045491)"/>
  <path d="M59.8859 33.8853C60.386 33.3852 60.667 32.7069 60.667 31.9997C60.667 31.2924 60.386 30.6142 59.8859 30.1141C59.3858 29.614 58.7076 29.333 58.0003 29.333C57.2931 29.333 56.6148 29.614 56.1147 30.1141C55.6146 30.6142 55.3337 31.2924 55.3337 31.9997C55.3337 32.7069 55.6146 33.3852 56.1147 33.8853C56.6148 34.3854 57.2931 34.6663 58.0003 34.6663C58.7076 34.6663 59.3858 34.3854 59.8859 33.8853Z" fill="#464646" transform="matrix(1, 0, 0, 1, 189.99506, 192.045491)"/>
  <path d="M78.5526 33.8853C79.0527 33.3852 79.3337 32.7069 79.3337 31.9997C79.3337 31.2924 79.0527 30.6142 78.5526 30.1141C78.0525 29.614 77.3742 29.333 76.667 29.333C75.9597 29.333 75.2815 29.614 74.7814 30.1141C74.2813 30.6142 74.0003 31.2924 74.0003 31.9997C74.0003 32.7069 74.2813 33.3852 74.7814 33.8853C75.2815 34.3854 75.9597 34.6663 76.667 34.6663C77.3742 34.6663 78.0525 34.3854 78.5526 33.8853Z" fill="#464646" transform="matrix(1, 0, 0, 1, 189.99506, 192.045491)"/>
</svg>